<?xml version="1.0" standalone="no"?>
<!DOCTYPE svg PUBLIC "-//W3C//DTD SVG 20010904//EN"
 "http://www.w3.org/TR/2001/REC-SVG-20010904/DTD/svg10.dtd">
<svg version="1.0" xmlns="http://www.w3.org/2000/svg"
 width="2176.000000pt" height="2176.000000pt" viewBox="0 0 2176.000000 2176.000000"
 preserveAspectRatio="xMidYMid meet">
<metadata>
Created by potrace 1.11, written by Peter Selinger 2001-2013
</metadata>
<g transform="translate(0.000000,2176.000000) scale(0.100000,-0.100000)"
fill="#000000" stroke="none">
<path d="M0 11033 l0 -3208 532 0 533 1 5 2281 5 2282 25 -37 c14 -20 27 -39
30 -42 5 -4 82 -103 115 -148 6 -7 18 -22 27 -33 10 -10 18 -22 18 -27 0 -4
10 -18 23 -32 12 -14 45 -54 72 -90 27 -36 53 -69 57 -75 5 -5 31 -39 58 -75
27 -36 56 -72 63 -80 8 -8 67 -85 132 -170 66 -85 122 -157 125 -160 3 -3 32
-41 65 -85 32 -44 62 -82 65 -85 3 -3 37 -45 75 -95 86 -111 96 -122 115 -126
19 -3 50 10 50 22 0 7 46 68 143 189 7 8 35 44 62 80 27 36 53 67 57 68 4 2 8
7 8 12 0 5 9 19 20 32 11 12 118 149 238 303 120 154 242 312 272 350 30 39
77 98 105 131 27 34 67 83 87 109 21 26 38 44 39 39 0 -5 1 -1028 2 -2274 l2
-2264 525 -1 526 0 0 3208 0 3207 -527 0 c-497 0 -527 -1 -542 -18 -10 -10
-17 -24 -17 -31 0 -7 -4 -9 -10 -6 -6 3 -10 2 -10 -3 0 -8 -29 -49 -78 -108
-9 -12 -26 -34 -37 -49 -11 -16 -24 -33 -30 -39 -5 -6 -23 -29 -40 -51 -16
-22 -35 -47 -42 -55 -14 -18 -206 -263 -234 -300 -11 -14 -67 -86 -125 -160
-134 -173 -121 -156 -179 -230 -27 -36 -53 -66 -57 -68 -5 -2 -8 -10 -8 -17 0
-7 -4 -15 -8 -17 -4 -1 -34 -37 -67 -78 -32 -41 -64 -78 -69 -82 -6 -4 -8 -8
-4 -8 5 0 -2 -11 -13 -24 -21 -25 -49 -25 -49 -1 0 7 -3 15 -8 17 -8 3 -43 45
-82 98 -14 19 -36 48 -51 64 -14 17 -67 85 -119 151 -52 66 -105 131 -117 145
-13 14 -23 28 -23 32 0 4 -18 26 -40 50 -22 24 -40 48 -40 55 0 6 -4 13 -8 15
-7 3 -104 121 -162 198 -26 34 -50 64 -72 90 -7 8 -25 31 -41 52 -15 21 -36
48 -46 60 -11 13 -58 73 -106 133 -47 61 -100 127 -116 148 l-31 37 -534 0
-534 0 0 -3207z"/>
<path d="M17920 14155 c-4 -5 -4 -19 0 -30 4 -11 4 -29 0 -41 -5 -11 -5 -27 0
-34 4 -7 5 -24 1 -39 -5 -14 -5 -38 -1 -52 4 -15 4 -32 0 -39 -4 -7 -4 -27 0
-46 4 -19 4 -36 0 -39 -5 -3 -5 -18 0 -34 4 -15 4 -34 0 -41 -4 -7 -4 -25 0
-40 4 -15 4 -33 0 -40 -4 -6 -4 -27 0 -46 4 -19 4 -36 0 -39 -5 -3 -5 -18 0
-34 4 -15 4 -34 0 -41 -4 -7 -4 -25 0 -40 4 -15 4 -33 0 -40 -4 -6 -4 -27 0
-46 4 -19 4 -36 0 -39 -5 -3 -5 -18 0 -34 4 -15 4 -34 0 -41 -4 -7 -4 -25 0
-40 4 -15 4 -33 0 -40 -4 -6 -4 -27 0 -46 4 -19 4 -36 0 -39 -5 -3 -5 -18 0
-34 4 -15 4 -34 0 -41 -4 -7 -4 -25 0 -40 4 -15 4 -33 0 -40 -4 -6 -4 -27 0
-46 4 -19 4 -36 0 -39 -5 -3 -5 -18 0 -34 4 -15 4 -34 0 -41 -4 -7 -4 -25 0
-40 4 -15 4 -33 0 -40 -4 -6 -4 -27 0 -46 4 -19 4 -36 0 -39 -5 -3 -5 -18 0
-34 4 -15 4 -34 0 -41 -4 -7 -4 -25 0 -40 4 -15 4 -33 0 -40 -4 -6 -4 -27 0
-46 4 -19 4 -36 0 -39 -5 -3 -5 -18 0 -34 4 -15 4 -34 0 -41 -4 -7 -4 -25 0
-40 4 -15 4 -33 0 -40 -4 -6 -4 -27 0 -46 4 -19 4 -36 0 -39 -5 -3 -5 -18 0
-34 4 -15 4 -34 0 -41 -4 -7 -4 -25 0 -40 4 -15 4 -33 0 -40 -4 -6 -4 -27 0
-46 4 -19 4 -36 0 -39 -5 -3 -5 -18 0 -34 4 -15 4 -34 0 -41 -4 -7 -4 -25 0
-40 4 -15 4 -33 0 -40 -4 -6 -4 -27 0 -46 4 -19 4 -34 0 -34 -4 0 -4 -16 0
-35 4 -19 4 -37 0 -40 -4 -3 -4 -20 0 -39 4 -19 4 -39 0 -46 -4 -7 -4 -27 0
-46 4 -19 4 -36 0 -39 -5 -3 -5 -18 0 -34 4 -15 4 -34 0 -41 -4 -6 -4 -27 0
-46 4 -19 4 -36 0 -39 -5 -3 -5 -18 0 -34 4 -15 4 -34 0 -41 -4 -7 -4 -25 0
-40 4 -15 4 -33 0 -40 -4 -6 -4 -27 0 -46 4 -19 4 -36 0 -39 -5 -3 -5 -18 0
-34 4 -15 4 -34 0 -41 -4 -7 -4 -25 0 -40 4 -15 4 -33 0 -40 -4 -6 -4 -27 0
-46 4 -19 4 -36 0 -39 -5 -3 -5 -18 0 -34 4 -15 4 -34 0 -41 -4 -7 -4 -25 0
-40 4 -15 4 -33 0 -40 -4 -6 -4 -27 0 -46 4 -19 4 -36 0 -39 -5 -3 -5 -18 0
-34 4 -15 4 -34 0 -41 -4 -7 -4 -25 0 -40 4 -15 4 -33 0 -40 -4 -6 -4 -27 0
-46 4 -19 4 -36 0 -39 -5 -3 -5 -18 0 -34 4 -15 4 -34 0 -41 -4 -7 -4 -25 0
-40 4 -15 4 -33 0 -40 -4 -6 -4 -27 0 -46 4 -19 4 -36 0 -39 -5 -3 -5 -18 0
-34 4 -15 4 -34 0 -41 -4 -7 -4 -25 0 -40 4 -15 4 -33 0 -40 -4 -6 -4 -27 0
-46 4 -19 4 -36 0 -39 -5 -3 -5 -18 0 -34 4 -15 4 -34 0 -41 -4 -7 -4 -25 0
-40 4 -15 4 -33 0 -40 -4 -6 -4 -27 0 -46 4 -19 4 -36 0 -39 -5 -3 -5 -18 0
-34 4 -15 4 -34 0 -41 -4 -7 -4 -25 0 -40 4 -15 4 -33 0 -40 -4 -6 -4 -27 0
-46 4 -19 4 -36 0 -39 -5 -3 -5 -18 0 -34 4 -15 4 -34 0 -41 -4 -7 -4 -25 0
-40 4 -15 4 -33 0 -40 -4 -6 -4 -27 0 -46 4 -19 4 -36 0 -39 -5 -3 -5 -18 0
-34 4 -15 4 -34 0 -41 -4 -7 -4 -25 0 -40 4 -15 4 -33 0 -40 -4 -7 -4 -25 0
-40 4 -15 4 -33 0 -40 -4 -7 -4 -25 0 -40 4 -15 4 -33 0 -40 -4 -6 -4 -27 0
-46 4 -19 4 -36 0 -39 -5 -3 -5 -18 0 -34 4 -15 4 -34 0 -41 -4 -7 -4 -25 0
-40 4 -15 4 -33 0 -40 -4 -6 -4 -27 0 -46 4 -19 4 -36 0 -39 -5 -3 -5 -18 0
-34 4 -15 4 -34 0 -41 -4 -7 -4 -25 0 -40 4 -15 4 -33 0 -40 -4 -6 -4 -27 0
-46 4 -19 4 -36 0 -39 -5 -3 -5 -18 0 -34 4 -15 4 -34 0 -41 -4 -7 -4 -25 0
-40 4 -15 4 -33 0 -40 -4 -6 -4 -27 0 -45 4 -18 4 -39 0 -46 -5 -7 -5 -22 0
-34 5 -12 5 -28 0 -35 -4 -7 -4 -25 0 -40 4 -15 4 -33 0 -40 -4 -6 -4 -27 0
-46 4 -18 5 -35 2 -38 -3 -4 236 -6 531 -6 l537 0 0 2420 0 2421 158 -155
c376 -369 551 -539 801 -775 45 -43 350 -333 422 -401 20 -19 70 -67 111 -105
75 -71 95 -100 77 -110 -5 -4 -6 -12 -2 -18 10 -16 10 -118 1 -139 -5 -9 -5
-19 -1 -21 10 -6 9 -130 -1 -145 -3 -6 -3 -13 1 -15 10 -6 9 -130 -1 -145 -3
-6 -3 -13 1 -15 10 -6 9 -130 -1 -145 -3 -6 -3 -13 1 -15 10 -6 9 -130 -1
-145 -3 -6 -3 -13 1 -15 10 -6 9 -130 -1 -145 -3 -6 -3 -13 1 -15 10 -6 9
-130 -1 -145 -3 -6 -3 -13 1 -15 10 -6 9 -130 -1 -145 -3 -6 -3 -13 1 -15 10
-6 9 -130 -1 -145 -3 -6 -3 -13 1 -15 10 -6 9 -130 -1 -145 -3 -6 -3 -13 1
-15 10 -6 9 -130 -1 -145 -3 -6 -3 -13 1 -15 10 -6 9 -130 -1 -145 -3 -6 -3
-13 1 -15 10 -6 9 -130 -1 -145 -3 -6 -3 -13 1 -15 10 -6 9 -130 -1 -145 -3
-6 -3 -13 1 -15 10 -6 9 -130 -1 -145 -3 -6 -3 -13 1 -15 10 -6 9 -130 -1
-145 -3 -6 -3 -13 1 -15 10 -6 9 -130 -1 -145 -3 -6 -3 -13 1 -15 10 -6 9
-130 -1 -145 -3 -6 -3 -13 1 -15 10 -6 9 -130 -1 -145 -3 -6 -3 -13 1 -15 5
-3 7 -57 7 -121 l-1 -116 533 0 534 0 0 98 c1 133 1 6261 0 6292 l0 25 -534 0
-534 0 2 -30 c1 -16 -2 -38 -6 -47 -4 -9 -5 -19 -1 -21 10 -6 9 -130 -1 -145
-3 -6 -3 -13 1 -15 10 -6 9 -130 -1 -145 -3 -6 -3 -13 1 -15 10 -6 9 -130 -1
-145 -3 -6 -3 -13 1 -15 10 -6 9 -130 -1 -145 -3 -6 -3 -13 1 -15 10 -6 9
-130 -1 -145 -3 -6 -3 -13 1 -15 10 -6 9 -130 -1 -145 -3 -6 -3 -13 1 -15 7
-5 9 -116 3 -142 -1 -5 -1 -12 0 -15 3 -8 5 -290 2 -290 -11 0 -62 46 -62 57
0 7 -3 12 -8 11 -4 -2 -45 33 -91 77 -194 185 -235 224 -414 398 -219 211
-286 276 -547 527 -255 245 -313 301 -388 374 l-62 61 -531 0 c-342 0 -534 -4
-539 -10z"/>
<path d="M8510 13280 c0 -3 -42 -5 -93 -6 -50 -1 -111 -4 -133 -8 -23 -4 -61
-9 -85 -11 -24 -3 -55 -7 -69 -10 -14 -4 -36 -8 -50 -11 -14 -3 -45 -10 -70
-15 -25 -6 -52 -12 -60 -14 -69 -14 -291 -99 -405 -156 -133 -65 -296 -162
-303 -181 -2 -4 -8 -8 -13 -8 -11 0 -129 -92 -193 -150 -84 -76 -260 -260
-249 -260 3 0 -6 -12 -20 -26 -76 -76 -327 -509 -327 -565 0 -8 -4 -19 -9 -24
-7 -8 -39 -95 -47 -130 -2 -5 -14 -50 -28 -100 -55 -201 -71 -335 -70 -590 0
-190 8 -294 30 -395 5 -19 8 -39 9 -45 1 -5 7 -33 14 -61 7 -29 14 -58 15 -65
2 -8 6 -21 9 -29 3 -8 12 -35 18 -60 15 -55 14 -51 24 -75 4 -11 21 -55 37
-97 31 -83 131 -283 154 -309 8 -8 14 -19 14 -23 0 -15 114 -178 190 -271 58
-71 281 -286 355 -342 97 -73 249 -173 263 -173 6 0 12 -3 14 -7 6 -14 278
-143 300 -143 5 0 24 -6 41 -14 44 -20 115 -41 232 -70 117 -29 165 -37 305
-52 135 -15 458 -8 554 12 12 2 36 7 55 10 18 3 43 8 55 10 11 3 35 7 51 10
62 11 264 74 347 109 21 8 39 15 40 14 9 -4 248 124 318 170 47 31 89 58 95
60 5 2 14 8 20 13 5 4 28 22 50 39 96 73 138 111 275 249 80 80 180 170 223
200 111 78 117 83 138 103 11 9 21 17 24 17 3 0 18 11 33 25 15 14 30 25 34
25 4 0 16 6 25 14 10 8 61 46 113 85 52 38 100 74 105 78 6 5 51 38 100 73 50
35 95 68 100 73 17 13 364 268 480 352 129 93 122 88 161 119 l30 25 27 -117
c35 -152 33 -145 58 -221 29 -88 94 -249 126 -308 56 -106 68 -128 78 -135 6
-4 7 -8 2 -8 -7 0 104 -167 147 -222 11 -14 32 -41 46 -59 26 -35 242 -254
295 -300 17 -14 57 -45 90 -70 33 -24 62 -47 63 -51 2 -5 7 -8 12 -8 5 0 43
-23 84 -50 42 -28 78 -50 80 -50 3 0 27 -12 53 -28 190 -110 524 -220 748
-248 209 -25 523 -24 649 2 12 3 39 7 61 10 56 8 184 40 285 71 102 31 338
129 363 151 9 8 17 12 17 9 0 -4 25 9 55 28 30 19 57 35 60 35 3 0 11 5 18 10
7 6 44 31 82 57 39 26 75 51 80 55 84 66 150 123 195 165 30 29 58 53 62 53 5
0 8 4 8 9 0 5 19 29 43 53 56 60 107 119 107 124 0 3 9 15 21 27 23 25 135
191 169 252 40 70 100 194 100 204 0 6 4 11 8 11 5 0 9 6 10 13 0 6 17 55 37
107 20 52 39 103 41 114 2 10 10 40 19 65 16 49 42 164 51 221 2 19 7 46 10
60 29 140 23 511 -11 690 -4 19 -9 46 -12 60 -2 14 -13 61 -24 105 -25 98 -25
96 -31 115 -3 8 -16 44 -28 80 -12 36 -28 81 -36 100 -9 19 -19 44 -23 55 -37
92 -167 330 -213 390 -5 6 -35 46 -68 90 -33 44 -75 96 -92 115 -52 58 -138
149 -138 146 0 -1 -25 21 -55 50 -30 29 -71 65 -92 81 -21 15 -40 31 -43 34
-15 18 -197 139 -210 139 -6 0 -10 4 -10 9 0 9 -276 151 -293 151 -4 0 -26 9
-50 19 -43 20 -188 69 -223 75 -10 2 -37 9 -59 15 -22 5 -53 13 -70 15 -16 3
-41 8 -55 11 -14 3 -43 7 -65 10 -22 3 -57 8 -77 11 -21 2 -78 7 -128 9 -49 2
-94 6 -99 10 -5 3 -12 1 -15 -4 -4 -6 -18 -6 -35 -1 -15 4 -33 5 -39 1 -13 -8
-200 -6 -209 2 -3 4 -13 2 -22 -3 -10 -5 -23 -5 -31 0 -8 5 -21 5 -30 0 -9 -5
-22 -5 -30 0 -7 4 -23 5 -35 0 -12 -5 -27 -5 -34 -1 -6 4 -31 5 -55 1 -24 -3
-51 -3 -62 0 -10 4 -31 4 -46 -1 -16 -4 -28 -4 -28 1 0 4 -15 4 -34 0 -19 -4
-40 -4 -47 1 -7 4 -20 4 -30 -1 -9 -5 -19 -7 -22 -3 -8 7 -207 10 -207 3 0 -7
-69 -4 -76 3 -3 3 -17 2 -30 -3 -14 -6 -26 -6 -29 0 -3 5 -15 6 -28 1 -12 -5
-34 -5 -49 0 -15 4 -30 4 -33 -1 -3 -5 -13 -6 -21 -3 -20 7 -214 10 -214 2 0
-6 -70 -2 -77 5 -3 2 -18 0 -34 -4 -16 -5 -29 -5 -29 0 0 4 -15 4 -34 0 -19
-4 -40 -4 -47 1 -7 4 -20 4 -29 -1 -9 -5 -22 -5 -28 -1 -7 4 -35 5 -62 1 -27
-4 -55 -3 -62 1 -6 4 -19 4 -28 -1 -9 -5 -22 -5 -30 0 -8 5 -21 5 -30 0 -9 -5
-22 -5 -30 0 -8 5 -21 5 -31 0 -9 -5 -19 -6 -23 -3 -11 11 -79 4 -87 -9 -4 -6
-4 -19 1 -28 5 -9 5 -22 0 -29 -4 -8 -5 -25 -1 -40 7 -28 6 -90 -3 -98 -2 -3
-1 -15 4 -28 5 -13 6 -26 3 -29 -7 -7 -8 -130 -1 -142 3 -5 2 -18 -2 -29 -4
-11 -4 -29 0 -41 5 -11 5 -27 0 -34 -4 -7 -4 -25 0 -41 5 -15 6 -30 3 -33 -5
-5 -7 -125 -3 -143 1 -5 1 -12 0 -18 -5 -22 -2 -114 5 -124 3 -6 2 -11 -4 -11
-6 0 -6 -11 -1 -30 5 -17 5 -30 0 -30 -5 0 -5 -13 0 -30 5 -17 5 -30 0 -30 -5
0 -5 -13 0 -30 5 -16 5 -30 1 -30 -4 0 -6 -13 -3 -29 4 -27 -3 -35 -74 -87
-44 -32 -80 -62 -82 -66 -2 -4 -8 -8 -13 -8 -5 0 -50 -30 -99 -67 -49 -38
-123 -93 -165 -123 -42 -30 -84 -61 -93 -68 -10 -7 -69 -50 -132 -97 -63 -46
-124 -91 -135 -99 -11 -8 -45 -33 -75 -55 -30 -22 -60 -45 -67 -51 -7 -5 -16
-10 -22 -10 -5 0 -11 -4 -13 -8 -5 -14 -108 -85 -108 -75 -1 50 -61 283 -106
408 -36 100 -166 375 -188 398 -7 7 -26 36 -44 65 -18 30 -42 63 -52 75 -11
11 -20 24 -20 28 0 7 -26 39 -125 158 -31 37 -209 213 -238 236 -159 123 -205
156 -280 202 -49 30 -299 160 -315 163 -4 1 -20 7 -37 14 -16 7 -68 25 -115
40 -47 15 -92 30 -100 33 -8 3 -26 8 -40 10 -14 2 -38 8 -55 13 -30 9 -61 16
-125 26 -19 3 -46 7 -60 10 -52 9 -118 16 -190 19 -41 2 -75 4 -75 5 0 1 -19
2 -43 3 -23 1 -42 0 -42 -3z m271 -1253 c180 -47 339 -137 470 -266 80 -80
169 -194 169 -217 0 -8 4 -14 9 -14 6 0 54 -94 66 -130 1 -3 4 -12 8 -20 16
-40 35 -109 42 -150 4 -25 9 -54 12 -65 14 -65 9 -237 -12 -345 -11 -58 -67
-220 -76 -220 -5 0 -8 -3 -7 -7 8 -32 -122 -217 -215 -306 -118 -113 -305
-224 -427 -252 -8 -2 -44 -10 -80 -19 -72 -17 -65 -16 -210 -17 -98 -1 -137 2
-200 16 -14 3 -41 8 -60 11 -19 4 -39 10 -45 14 -5 4 -23 10 -39 14 -36 9
-185 82 -207 102 -8 8 -21 14 -27 14 -7 0 -12 4 -12 8 0 4 -13 15 -28 24 -30
18 -128 112 -172 164 -89 106 -183 288 -206 399 -2 11 -7 31 -10 45 -19 87
-26 281 -12 370 19 122 54 227 110 330 63 116 89 150 193 255 145 145 331 240
550 280 110 20 301 11 416 -18z m5379 14 c74 -17 152 -41 168 -54 6 -5 12 -6
12 -2 0 7 180 -86 203 -105 7 -5 41 -33 77 -62 36 -29 72 -62 82 -73 9 -11 30
-36 48 -55 58 -64 194 -290 175 -290 -3 0 1 -13 10 -29 8 -17 17 -40 19 -53 3
-13 5 -23 6 -23 1 0 9 -39 19 -86 27 -136 19 -324 -18 -447 -5 -18 -11 -36
-12 -40 -10 -39 -51 -136 -75 -180 -68 -121 -179 -253 -272 -322 -19 -14 -39
-30 -45 -35 -34 -30 -168 -102 -235 -125 -135 -48 -228 -64 -372 -63 -196 1
-368 52 -555 166 -11 7 -22 14 -25 17 -3 3 -30 25 -60 50 -109 89 -217 223
-272 340 -29 63 -65 158 -72 192 -2 13 -10 46 -16 73 -7 28 -13 103 -15 168
-6 234 62 451 199 637 47 64 160 180 175 180 6 0 11 4 11 9 0 14 131 98 208
132 37 17 74 34 82 38 8 4 29 4 45 1 17 -4 40 -3 52 1 13 5 25 4 29 -2 9 -15
34 9 27 27 -3 8 -4 14 -2 14 29 3 85 13 87 15 9 8 264 -4 312 -14z"/>
</g>
</svg>
